<svg xmlns="http://www.w3.org/2000/svg" version="1.1" xmlns:xlink="http://www.w3.org/1999/xlink" width="200" height="200"><svg xmlns="http://www.w3.org/2000/svg" version="1.1" xmlns:xlink="http://www.w3.org/1999/xlink" viewBox="0 0 200 200"><rect width="200" height="200" fill="url('#gradient')"></rect><defs><linearGradient id="SvgjsLinearGradient2492" gradientTransform="rotate(45 0.5 0.5)"><stop offset="0%" stop-color="#48cdff"></stop><stop offset="100%" stop-color="#48cdff"></stop></linearGradient></defs><g><g fill="#ffffff" transform="matrix(6.265195586760281,0,0,6.265195586760281,44.243276283686,134.26936624425582)" stroke="#ffffff" stroke-width="0"><path d="M4.95 0L1.65 0L1.65-8.28L0.12-8.28L0.12-10.57L1.65-10.57L1.65-11.41Q1.65-13.21 2.71-14.21Q3.78-15.21 5.70-15.21L5.70-15.21Q6.41-15.21 7.25-15L7.25-15L7.26-12.58Q6.95-12.67 6.45-12.67L6.45-12.67Q4.95-12.67 4.95-11.38L4.95-11.38L4.95-10.57L7.01-10.57L7.01-8.28L4.95-8.28L4.95 0ZM10.72-10.57L12.39-4.61L14.15-10.57L17.68-10.57L13.37 1.77L13.18 2.22Q12.27 4.27 9.94 4.27L9.94 4.27Q9.30 4.27 8.58 4.07L8.58 4.07L8.58 1.72L9.01 1.72Q9.71 1.72 10.07 1.52Q10.44 1.32 10.62 0.80L10.62 0.80L10.88 0.10L7.21-10.57L10.72-10.57Z"></path></g></g></svg><style>@media (prefers-color-scheme: light) { :root { filter: none; } }
@media (prefers-color-scheme: dark) { :root { filter: none; } }
</style></svg>